<svg id="Layer_1" data-name="Layer 1" xmlns="http://www.w3.org/2000/svg" viewBox="0 0 29 34"><defs><style>.cls-1{fill:#fff;}</style></defs><path class="cls-1" d="M22.86,2.37a6.16,6.16,0,0,0-6.08,5.35H14L11.64,0H0V2.08H10.11l1.71,5.64H7l.39,1.34a47.73,47.73,0,0,1,2,13.57v2.52a1.9,1.9,0,0,0,1.89,1.9h3.24v4.87H8.63V34H22.31V31.92H16.5V27.05h3.24a1.9,1.9,0,0,0,1.89-1.9V22.63a48.53,48.53,0,0,1,.66-7.91l.57,0a6.19,6.19,0,0,0,0-12.38ZM9.71,9.8h2.74L14.32,16h-3.4A49.31,49.31,0,0,0,9.71,9.8Zm9.85,12.83V25H11.37V22.63c0-1.54-.09-3.07-.23-4.59H19.8C19.66,19.56,19.56,21.09,19.56,22.63ZM20,16H16.48L14.61,9.8h6.62A49.34,49.34,0,0,0,20,16Zm2.85-3.29-.18,0c.25-1.21.55-2.41.91-3.59L24,7.72h-5.1a4.07,4.07,0,1,1,4,5Z"/></svg>