<svg id="Layer_1" data-name="Layer 1" xmlns="http://www.w3.org/2000/svg" viewBox="0 0 22 34"><defs><style>.cls-1{fill:#fff;}</style></defs><path class="cls-1" d="M16.39,9.37a10.84,10.84,0,0,0,3.7-8.27V0H1V1.1a10.84,10.84,0,0,0,3.7,8.27H0L4.78,34H17.22L22,9.37ZM8.07,8.88,10.43,3.7,12.83,9a6.62,6.62,0,0,1-2.27.41A6.7,6.7,0,0,1,8.07,8.88Zm6.66-1L12.12,2.2h5.76A8.43,8.43,0,0,1,14.73,7.91ZM3.23,2.2H8.74L6.2,7.78A8.47,8.47,0,0,1,3.23,2.2ZM11,11.57h8.38l-1.13,5.84A20.8,20.8,0,0,1,9,16a14.86,14.86,0,0,0-5.76-1.09l-.65-3.34ZM15.45,31.8H6.55L3.7,17.13A12.5,12.5,0,0,1,8.15,18a21.92,21.92,0,0,0,8.66,1.66c.34,0,.67,0,1,0Z"/></svg>