<svg id="Layer_1" data-name="Layer 1" xmlns="http://www.w3.org/2000/svg" viewBox="0 0 30 21"><defs><style>.cls-1{fill:#fff;}</style></defs><path class="cls-1" d="M30,12.63H0v1.08A7.26,7.26,0,0,0,7.21,21h5.68A7.24,7.24,0,0,0,20,14.8H30ZM12.89,18.84H7.21a5.1,5.1,0,0,1-5-4h15.6A5.11,5.11,0,0,1,12.89,18.84Z"/><path class="cls-1" d="M8.41,10l2,.84A13.93,13.93,0,0,0,10.38,0L8.4.84A11.75,11.75,0,0,1,8.41,10Z"/><path class="cls-1" d="M3.26,10l2,.84A13.84,13.84,0,0,0,5.23,0l-2,.84A11.71,11.71,0,0,1,3.26,10Z"/><path class="cls-1" d="M13.55,10l2,.84A13.93,13.93,0,0,0,15.52,0l-2,.84A11.75,11.75,0,0,1,13.55,10Z"/></svg>